<svg width="22" height="22" viewBox="0 0 22 22" fill="none" xmlns="http://www.w3.org/2000/svg">
<path d="M14.354 6.51166L6.30955 9.6365C5.98244 9.76351 5.76257 10.0734 5.75052 10.4242C5.73847 10.7749 5.93671 11.0991 6.25447 11.2481L9.31534 12.685L10.7528 15.7459C10.8977 16.0544 11.2075 16.2502 11.5467 16.2502C11.5567 16.2502 11.5668 16.25 11.5768 16.2497C11.9276 16.2376 12.2373 16.0178 12.3644 15.6907L15.4892 7.64691C15.6151 7.32284 15.5377 6.95491 15.2918 6.70907C15.0459 6.46324 14.6777 6.38582 14.354 6.51166ZM11.4704 13.1472L10.7686 11.6528C10.6816 11.4675 10.5326 11.3185 10.3473 11.2316L8.8535 10.5304L13.1328 8.86813L11.4704 13.1472Z" fill="white"/>
<path d="M10.9995 0C4.93433 0.000116952 0 4.93468 0 10.9999C0 17.0653 4.93433 22 10.9996 22.0001C17.0652 22 21.9999 17.0654 21.9999 11.0001C21.9999 4.93457 17.0651 0 10.9995 0ZM10.9995 20.2457C5.90164 20.2456 1.75417 16.098 1.75417 10.9998C1.75417 5.90188 5.90153 1.75428 10.9995 1.75417C16.0978 1.75417 20.2455 5.90176 20.2455 10.9999C20.2456 16.098 16.0978 20.2456 10.9995 20.2457Z" fill="white"/>
</svg>
